<svg width="20.000000" height="19.000000" viewBox="0 0 20 19" fill="none" xmlns="http://www.w3.org/2000/svg" xmlns:xlink="http://www.w3.org/1999/xlink">
	<desc>
			Created with Pixso.
	</desc>
	<defs/>
	<path id="Gh" d="M6.68 15.02C6.68 15.1 6.59 15.16 6.47 15.16C6.34 15.17 6.25 15.11 6.25 15.02C6.25 14.94 6.34 14.88 6.46 14.88C6.58 14.87 6.68 14.93 6.68 15.02ZM5.43 14.84C5.4 14.92 5.48 15.01 5.6 15.03C5.71 15.07 5.83 15.03 5.85 14.96C5.88 14.88 5.8 14.79 5.68 14.75C5.58 14.73 5.46 14.76 5.43 14.84ZM7.21 14.78C7.1 14.8 7.02 14.88 7.03 14.97C7.04 15.05 7.14 15.1 7.27 15.07C7.38 15.04 7.46 14.97 7.45 14.89C7.44 14.82 7.33 14.76 7.21 14.78ZM9.87 -0.19C4.27 -0.19 0 3.92 0 9.34C0 13.67 2.81 17.38 6.83 18.68C7.35 18.77 7.53 18.46 7.53 18.21C7.53 17.97 7.52 16.63 7.52 15.81C7.52 15.81 4.69 16.4 4.1 14.65C4.1 14.65 3.64 13.51 2.98 13.22C2.98 13.22 2.06 12.6 3.04 12.62C3.04 12.62 4.05 12.69 4.6 13.62C5.48 15.13 6.96 14.7 7.54 14.44C7.63 13.82 7.89 13.38 8.18 13.12C5.93 12.88 3.66 12.57 3.66 8.81C3.66 7.73 3.96 7.19 4.61 6.51C4.5 6.25 4.16 5.21 4.71 3.85C5.56 3.6 7.5 4.91 7.5 4.91C8.3 4.69 9.17 4.58 10.03 4.58C10.89 4.58 11.75 4.69 12.56 4.91C12.56 4.91 14.5 3.6 15.34 3.85C15.89 5.21 15.55 6.25 15.45 6.51C16.09 7.2 16.49 7.74 16.49 8.81C16.49 12.58 14.11 12.88 11.86 13.12C12.23 13.43 12.54 14.02 12.54 14.94C12.54 16.25 12.53 17.88 12.53 18.2C12.53 18.46 12.72 18.76 13.23 18.67C17.26 17.38 20 13.67 20 9.34C20 3.92 15.46 -0.19 9.87 -0.19ZM3.91 13.28C3.86 13.32 3.87 13.41 3.94 13.48C4.01 13.55 4.1 13.57 4.15 13.52C4.2 13.48 4.19 13.39 4.12 13.32C4.06 13.26 3.97 13.23 3.91 13.28ZM3.48 12.96C3.45 13.01 3.49 13.08 3.57 13.12C3.64 13.16 3.72 13.14 3.75 13.09C3.77 13.04 3.73 12.98 3.65 12.94C3.57 12.91 3.51 12.92 3.48 12.96ZM4.79 14.35C4.72 14.41 4.75 14.52 4.84 14.6C4.93 14.69 5.05 14.7 5.1 14.64C5.15 14.58 5.13 14.47 5.05 14.39C4.96 14.3 4.84 14.29 4.79 14.35ZM4.33 13.78C4.26 13.82 4.26 13.92 4.33 14.01C4.39 14.1 4.5 14.14 4.55 14.1C4.62 14.05 4.62 13.95 4.55 13.86C4.5 13.77 4.39 13.73 4.33 13.78Z" fill="#FFFFFF" fill-opacity="1.000000" fill-rule="nonzero"/>
</svg>
