<svg width="20.000000" height="13.000000" viewBox="0 0 20 13" fill="none" xmlns="http://www.w3.org/2000/svg" xmlns:xlink="http://www.w3.org/1999/xlink">
	<desc>
			Created with Pixso.
	</desc>
	<defs/>
	<path id="VK" d="M19.19 0.15C19.32 -0.37 19.19 -0.75 18.52 -0.75L16.34 -0.75C15.78 -0.75 15.52 -0.43 15.39 -0.06C15.39 -0.06 14.27 3 12.7 4.98C12.19 5.55 11.96 5.73 11.68 5.73C11.54 5.73 11.33 5.55 11.33 5.03L11.33 0.15C11.33 -0.48 11.17 -0.75 10.71 -0.75L7.27 -0.75C6.93 -0.75 6.72 -0.46 6.72 -0.19C6.72 0.4 7.5 0.54 7.59 2.21L7.59 5.84C7.59 6.63 7.46 6.78 7.18 6.78C6.44 6.78 4.63 3.71 3.57 0.2C3.35 -0.48 3.14 -0.75 2.58 -0.75L0.39 -0.75C-0.23 -0.75 -0.36 -0.43 -0.36 -0.06C-0.36 0.59 0.38 3.83 3.1 8.11C4.91 11.03 7.45 12.61 9.77 12.61C11.16 12.61 11.33 12.26 11.33 11.65C11.33 8.86 11.21 8.6 11.9 8.6C12.23 8.6 12.78 8.79 14.08 10.19C15.57 11.86 15.81 12.61 16.65 12.61L18.83 12.61C19.46 12.61 19.77 12.26 19.59 11.57C19.17 10.11 16.36 7.11 16.24 6.91C15.91 6.44 16.01 6.23 16.24 5.82C16.24 5.81 18.91 1.58 19.19 0.15Z" fill="#FFFFFF" fill-opacity="1.000000" fill-rule="nonzero"/>
</svg>
