<svg width="20" height="15" viewBox="0 0 20 15" fill="none" xmlns="http://www.w3.org/2000/svg">
<path d="M19.58 2.66938C19.3425 1.82625 18.685 1.165 17.8381 0.931253C16.2787 0.514378 10.01 0.514379 10.01 0.514379C10.01 0.514379 3.75312 0.504378 2.1775 0.931253C1.335 1.16563 0.674373 1.82625 0.439373 2.66938C0.143748 4.2675 -0.00312723 5.885 0.00374777 7.51C0.000622771 9.12438 0.146873 10.7394 0.439373 12.3275C0.674373 13.1706 1.335 13.8319 2.1775 14.0694C3.73687 14.4863 10.01 14.4863 10.01 14.4863C10.01 14.4863 16.2631 14.4863 17.8381 14.0694C18.685 13.8319 19.3425 13.1713 19.58 12.3275C19.8669 10.7394 20.0069 9.12438 19.9969 7.51C20.0069 5.885 19.87 4.2675 19.58 2.66938ZM8.0075 10.5019V4.505L13.2256 7.51L8.0075 10.5019Z" fill="white"/>
</svg>
